<?xml version="1.0" encoding="utf-8"?>
<!-- Generator: Adobe Illustrator 22.0.0, SVG Export Plug-In . SVG Version: 6.00 Build 0)  -->
<svg version="1.1" id="Layer_1" xmlns="http://www.w3.org/2000/svg" xmlns:xlink="http://www.w3.org/1999/xlink" x="0px" y="0px"
	 viewBox="0 0 30 18.6" style="enable-background:new 0 0 30 18.6;" xml:space="preserve">
<style type="text/css">
	.st0{fill:#898989;}
</style>
<g>
	<g>
		<path class="st0" d="M15.1,12L4.4,1.4C4.2,1.1,3.8,1,3.3,1C2.9,1,2.5,1.1,2.3,1.4L1.3,2.4C1,2.7,0.9,3,0.9,3.5
			c0,0.4,0.2,0.8,0.5,1.1L14,17.1c0.3,0.3,0.7,0.5,1.1,0.4c0.4,0,0.8-0.2,1.1-0.5L28.8,4.5c0.3-0.3,0.5-0.7,0.5-1.1
			c0-0.4-0.2-0.8-0.5-1.1l-0.9-0.9c-0.6-0.6-1.6-0.6-2.2,0L15.1,12z"/>
	</g>
</g>
</svg>
