<?xml version="1.0" encoding="utf-8"?>
<!-- Generator: Adobe Illustrator 16.0.0, SVG Export Plug-In . SVG Version: 6.00 Build 0)  -->
<!DOCTYPE svg PUBLIC "-//W3C//DTD SVG 1.1//EN" "http://www.w3.org/Graphics/SVG/1.1/DTD/svg11.dtd">
<svg version="1.1" id="Layer_1" xmlns="http://www.w3.org/2000/svg" xmlns:xlink="http://www.w3.org/1999/xlink" x="0px" y="0px"
	 width="24px" height="24px" viewBox="0 0 24 24" enable-background="new 0 0 24 24" xml:space="preserve">
<g>
	<g>
		<path fill="#C62127" d="M5.993,21.141c0.024,0.568,0.491,1.016,1.059,1.016h9.896c0.567,0,1.035-0.447,1.059-1.016l0.707-14.918
			H5.287L5.993,21.141z M14.239,9.928c0-0.238,0.191-0.431,0.43-0.431h0.689c0.237,0,0.431,0.193,0.431,0.431v8.523
			c0,0.237-0.193,0.431-0.431,0.431h-0.689c-0.237,0-0.43-0.193-0.43-0.431V9.928z M11.226,9.928c0-0.238,0.192-0.431,0.43-0.431
			h0.689c0.238,0,0.431,0.193,0.431,0.431v8.523c0,0.237-0.193,0.431-0.431,0.431h-0.689c-0.237,0-0.43-0.193-0.43-0.431V9.928
			L11.226,9.928z M8.212,9.928c0-0.238,0.193-0.431,0.431-0.431h0.688c0.238,0,0.431,0.193,0.431,0.431v8.523
			c0,0.237-0.193,0.431-0.431,0.431H8.643c-0.238,0-0.431-0.193-0.431-0.431V9.928z"/>
		<path fill="#C62127" d="M19.184,2.179h-4.564V1.316c0-0.123-0.1-0.222-0.222-0.222H9.604c-0.123,0-0.222,0.1-0.222,0.222v0.863
			H4.816c-0.367,0-0.665,0.297-0.665,0.665v2.09H19.85v-2.09C19.85,2.477,19.552,2.179,19.184,2.179z"/>
	</g>
</g>
</svg>
