<?xml version="1.0" encoding="iso-8859-1"?>
<!-- Generator: Adobe Illustrator 19.0.0, SVG Export Plug-In . SVG Version: 6.00 Build 0)  -->
<svg version="1.1" id="Capa_1" xmlns="http://www.w3.org/2000/svg" xmlns:xlink="http://www.w3.org/1999/xlink" x="0px" y="0px"
	 viewBox="0 0 471.04 471.04" style="enable-background:new 0 0 471.04 471.04;" xml:space="preserve">
<g>
	<g>
		<path d="M332.544,10.24V51.2c0,22.528,18.432,40.96,40.96,40.96h40.96L332.544,10.24z"/>
	</g>
</g>
<g>
	<g>
		<path d="M373.504,112.64c-33.792,0-61.44-27.648-61.44-61.44V0h-143.36c-28.16,0-51.2,23.04-51.2,51.2v358.4
			c0,28.16,23.04,51.2,51.2,51.2h51.712c27.648,0,50.688-22.528,50.688-50.688v-51.2c0-28.672,23.04-51.712,51.712-51.712h51.712
			c27.648,0,50.688-22.528,50.688-50.688V112.64H373.504z M168.704,40.96h102.4c5.632,0,10.24,4.608,10.24,10.24
			s-4.608,10.24-10.24,10.24h-102.4c-5.632,0-10.24-4.608-10.24-10.24S163.072,40.96,168.704,40.96z M373.504,266.24h-204.8
			c-5.632,0-10.24-4.608-10.24-10.24c0-5.632,4.608-10.24,10.24-10.24h204.8c5.632,0,10.24,4.608,10.24,10.24
			C383.744,261.632,379.136,266.24,373.504,266.24z M373.504,215.04h-204.8c-5.632,0-10.24-4.608-10.24-10.24
			c0-5.632,4.608-10.24,10.24-10.24h204.8c5.632,0,10.24,4.608,10.24,10.24C383.744,210.432,379.136,215.04,373.504,215.04z
			 M373.504,163.84h-204.8c-5.632,0-10.24-4.608-10.24-10.24c0-5.632,4.608-10.24,10.24-10.24h204.8
			c5.632,0,10.24,4.608,10.24,10.24C383.744,159.232,379.136,163.84,373.504,163.84z"/>
	</g>
</g>
<g>
	<g>
		<path d="M97.024,409.6V51.2c0-20.992,10.752-39.936,27.136-51.2C97.536,2.048,76.544,24.064,76.544,51.2v358.4
			c0,27.136,20.992,49.152,47.616,51.2C107.776,449.536,97.024,430.592,97.024,409.6z"/>
	</g>
</g>
<g>
	<g>
		<path d="M56.576,409.6V51.2c0-20.992,10.752-39.936,27.136-51.2C57.088,2.048,36.096,24.064,36.096,51.2v358.4
			c0,27.136,20.992,49.152,47.616,51.2C67.328,449.536,56.576,430.592,56.576,409.6z"/>
	</g>
</g>
<g>
	<g>
		<path d="M424.704,399.36h-40.96V358.4c0-5.632-4.608-10.24-10.24-10.24c-5.632,0-10.24,4.608-10.24,10.24v40.96h-40.96
			c-5.632,0-10.24,4.608-10.24,10.24c0,5.632,4.608,10.24,10.24,10.24h40.96v40.96c0,5.632,4.608,10.24,10.24,10.24
			c5.632,0,10.24-4.608,10.24-10.24v-40.96h40.96c5.632,0,10.24-4.608,10.24-10.24C434.944,403.968,430.336,399.36,424.704,399.36z"
			/>
	</g>
</g>
<g>
</g>
<g>
</g>
<g>
</g>
<g>
</g>
<g>
</g>
<g>
</g>
<g>
</g>
<g>
</g>
<g>
</g>
<g>
</g>
<g>
</g>
<g>
</g>
<g>
</g>
<g>
</g>
<g>
</g>
</svg>
