<?xml version="1.0" encoding="utf-8"?>
<!-- Generator: Adobe Illustrator 16.0.0, SVG Export Plug-In . SVG Version: 6.00 Build 0)  -->
<!DOCTYPE svg PUBLIC "-//W3C//DTD SVG 1.1//EN" "http://www.w3.org/Graphics/SVG/1.1/DTD/svg11.dtd">
<svg version="1.1" id="Layer_1" xmlns="http://www.w3.org/2000/svg" xmlns:xlink="http://www.w3.org/1999/xlink" x="0px" y="0px"
	 width="30px" height="30px" viewBox="0 0 30 30" enable-background="new 0 0 30 30" xml:space="preserve">
<g>
	<path fill="#4071B8" d="M15,0.672C7.1,0.672,0.673,7.1,0.673,15C0.673,22.9,7.1,29.327,15,29.327c7.9,0,14.327-6.427,14.327-14.328
		C29.327,7.1,22.9,0.672,15,0.672z M15,27.495C8.11,27.495,2.505,21.89,2.505,15C2.505,8.11,8.11,2.505,15,2.505
		S27.495,8.11,27.495,15C27.495,21.89,21.89,27.495,15,27.495z"/>
	<path fill="#4071B8" d="M22.143,14.083h-6.227V7.856c0-0.505-0.411-0.916-0.916-0.916c-0.506,0-0.916,0.411-0.916,0.916v6.227
		H7.857c-0.505,0-0.916,0.41-0.916,0.916c0,0.505,0.411,0.917,0.916,0.917h6.227v6.227c0,0.506,0.41,0.916,0.916,0.916
		c0.505,0,0.916-0.41,0.916-0.916v-6.227h6.227c0.506,0,0.916-0.411,0.916-0.917C23.059,14.494,22.648,14.083,22.143,14.083z"/>
</g>
</svg>
