<?xml version="1.0" encoding="utf-8"?>
<!-- Generator: Adobe Illustrator 16.0.0, SVG Export Plug-In . SVG Version: 6.00 Build 0)  -->
<!DOCTYPE svg PUBLIC "-//W3C//DTD SVG 1.1//EN" "http://www.w3.org/Graphics/SVG/1.1/DTD/svg11.dtd">
<svg version="1.1" id="Layer_1" xmlns="http://www.w3.org/2000/svg" xmlns:xlink="http://www.w3.org/1999/xlink" x="0px" y="0px"
	 width="24px" height="24px" viewBox="0 0 24 24" enable-background="new 0 0 24 24" xml:space="preserve">
<g>
	<path fill="#8B8B8D" d="M15.648,3.618c-3.316-3.316-8.713-3.316-12.03,0c-3.316,3.317-3.316,8.713,0,12.031
		c2.953,2.952,7.552,3.269,10.867,0.964c0.069,0.329,0.229,0.644,0.486,0.9l4.83,4.829c0.702,0.704,1.84,0.704,2.539,0
		c0.704-0.702,0.704-1.84,0-2.54l-4.828-4.831c-0.256-0.255-0.571-0.416-0.901-0.483C18.918,11.171,18.603,6.572,15.648,3.618z
		 M14.123,14.124c-2.475,2.475-6.505,2.475-8.98,0c-2.474-2.477-2.474-6.505,0-8.98c2.475-2.475,6.505-2.475,8.98,0
		C16.601,7.619,16.601,11.647,14.123,14.124z"/>
</g>
</svg>
