<?xml version="1.0" encoding="utf-8"?>
<!-- Generator: Adobe Illustrator 16.0.0, SVG Export Plug-In . SVG Version: 6.00 Build 0)  -->
<!DOCTYPE svg PUBLIC "-//W3C//DTD SVG 1.1//EN" "http://www.w3.org/Graphics/SVG/1.1/DTD/svg11.dtd">
<svg version="1.1" id="Layer_1" xmlns="http://www.w3.org/2000/svg" xmlns:xlink="http://www.w3.org/1999/xlink" x="0px" y="0px"
	 width="24px" height="24px" viewBox="0 0 24 24" enable-background="new 0 0 24 24" xml:space="preserve">
<g>
	<path fill="#1DB2E7" d="M12.008,5.435c-3.969,0-7.567,2.171-10.223,5.697c-0.216,0.289-0.216,0.693,0,0.981
		c2.656,3.531,6.254,5.702,10.223,5.702c3.968,0,7.567-2.171,10.222-5.697c0.217-0.289,0.217-0.693,0-0.981
		C19.575,7.606,15.977,5.435,12.008,5.435z M12.292,15.984c-2.634,0.165-4.809-2.006-4.644-4.644
		c0.136-2.175,1.899-3.938,4.074-4.074c2.634-0.166,4.81,2.005,4.644,4.644C16.228,14.081,14.464,15.844,12.292,15.984z
		 M12.162,13.971c-1.419,0.089-2.592-1.079-2.499-2.499c0.072-1.172,1.023-2.12,2.196-2.196c1.419-0.089,2.591,1.079,2.498,2.498
		C14.282,12.951,13.329,13.898,12.162,13.971z"/>
</g>
</svg>
